<svg width="180" height="263" viewBox="0 0 180 263" fill="none" xmlns="http://www.w3.org/2000/svg">
<circle cx="6.91775" cy="0.532833" r="5" transform="rotate(-33.0471 6.91775 0.532833)" fill="#EDCD33"/>
<circle cx="17.279" cy="16.4591" r="5" transform="rotate(-33.0471 17.279 16.4591)" fill="#EDCD33"/>
<circle cx="40.7492" cy="1.18988" r="5" transform="rotate(-33.0471 40.7492 1.18988)" fill="#EDCD33"/>
<circle cx="27.6402" cy="32.3853" r="5" transform="rotate(-33.0471 27.6402 32.3853)" fill="#EDCD33"/>
<circle cx="51.1104" cy="17.1161" r="5" transform="rotate(-33.0471 51.1104 17.1161)" fill="#EDCD33"/>
<circle cx="74.5807" cy="1.84695" r="5" transform="rotate(-33.0471 74.5807 1.84695)" fill="#EDCD33"/>
<circle cx="38.0014" cy="48.3115" r="5" transform="rotate(-33.0471 38.0014 48.3115)" fill="#EDCD33"/>
<circle cx="61.4716" cy="33.0423" r="5" transform="rotate(-33.0471 61.4716 33.0423)" fill="#EDCD33"/>
<circle cx="84.9419" cy="17.7732" r="5" transform="rotate(-33.0471 84.9419 17.7732)" fill="#EDCD33"/>
<circle cx="108.412" cy="2.50396" r="5" transform="rotate(-33.0471 108.412 2.50396)" fill="#EDCD33"/>
<circle cx="48.3627" cy="64.2378" r="5" transform="rotate(-33.0471 48.3627 64.2378)" fill="#EDCD33"/>
<circle cx="71.8329" cy="48.9686" r="5" transform="rotate(-33.0471 71.8329 48.9686)" fill="#EDCD33"/>
<circle cx="95.3032" cy="33.6994" r="5" transform="rotate(-33.0471 95.3032 33.6994)" fill="#EDCD33"/>
<circle cx="118.773" cy="18.4302" r="5" transform="rotate(-33.0471 118.773 18.4302)" fill="#EDCD33"/>
<circle cx="142.244" cy="3.16101" r="5" transform="rotate(-33.0471 142.244 3.16101)" fill="#EDCD33"/>
<circle cx="58.7239" cy="80.164" r="5" transform="rotate(-33.0471 58.7239 80.164)" fill="#EDCD33"/>
<circle cx="82.1941" cy="64.8948" r="5" transform="rotate(-33.0471 82.1941 64.8948)" fill="#EDCD33"/>
<circle cx="105.664" cy="49.6256" r="5" transform="rotate(-33.0471 105.664 49.6256)" fill="#EDCD33"/>
<circle cx="129.135" cy="34.3564" r="5" transform="rotate(-33.0471 129.135 34.3564)" fill="#EDCD33"/>
<circle cx="152.605" cy="19.0872" r="5" transform="rotate(-33.0471 152.605 19.0872)" fill="#EDCD33"/>
<circle cx="176.075" cy="3.81808" r="5" transform="rotate(-33.0471 176.075 3.81808)" fill="#EDCD33"/>
<circle cx="69.0852" cy="96.0902" r="5" transform="rotate(-33.0471 69.0852 96.0902)" fill="#EDCD33"/>
<circle cx="92.5554" cy="80.821" r="5" transform="rotate(-33.0471 92.5554 80.821)" fill="#EDCD33"/>
<circle cx="116.026" cy="65.5519" r="5" transform="rotate(-33.0471 116.026 65.5519)" fill="#EDCD33"/>
<circle cx="139.496" cy="50.2827" r="5" transform="rotate(-33.0471 139.496 50.2827)" fill="#EDCD33"/>
<circle cx="162.966" cy="35.0135" r="5" transform="rotate(-33.0471 162.966 35.0135)" fill="#EDCD33"/>
<circle cx="186.436" cy="19.7443" r="5" transform="rotate(-33.0471 186.436 19.7443)" fill="#EDCD33"/>
<circle cx="79.4464" cy="112.016" r="5" transform="rotate(-33.0471 79.4464 112.016)" fill="#EDCD33"/>
<circle cx="102.917" cy="96.7472" r="5" transform="rotate(-33.0471 102.917 96.7472)" fill="#EDCD33"/>
<circle cx="126.387" cy="81.4781" r="5" transform="rotate(-33.0471 126.387 81.4781)" fill="#EDCD33"/>
<circle cx="149.857" cy="66.2089" r="5" transform="rotate(-33.0471 149.857 66.2089)" fill="#EDCD33"/>
<circle cx="173.327" cy="50.9397" r="5" transform="rotate(-33.0471 173.327 50.9397)" fill="#EDCD33"/>
<circle cx="89.8076" cy="127.943" r="5" transform="rotate(-33.0471 89.8076 127.943)" fill="#EDCD33"/>
<circle cx="113.278" cy="112.673" r="5" transform="rotate(-33.0471 113.278 112.673)" fill="#EDCD33"/>
<circle cx="136.748" cy="97.4043" r="5" transform="rotate(-33.0471 136.748 97.4043)" fill="#EDCD33"/>
<circle cx="160.218" cy="82.1351" r="5" transform="rotate(-33.0471 160.218 82.1351)" fill="#EDCD33"/>
<circle cx="183.689" cy="66.8659" r="5" transform="rotate(-33.0471 183.689 66.8659)" fill="#EDCD33"/>
<circle cx="100.169" cy="143.869" r="5" transform="rotate(-33.0471 100.169 143.869)" fill="#EDCD33"/>
<circle cx="123.639" cy="128.6" r="5" transform="rotate(-33.0471 123.639 128.6)" fill="#EDCD33"/>
<circle cx="147.109" cy="113.331" r="5" transform="rotate(-33.0471 147.109 113.331)" fill="#EDCD33"/>
<circle cx="170.58" cy="98.0614" r="5" transform="rotate(-33.0471 170.58 98.0614)" fill="#EDCD33"/>
<circle cx="110.53" cy="159.795" r="5" transform="rotate(-33.0471 110.53 159.795)" fill="#EDCD33"/>
<circle cx="134" cy="144.526" r="5" transform="rotate(-33.0471 134 144.526)" fill="#EDCD33"/>
<circle cx="157.471" cy="129.257" r="5" transform="rotate(-33.0471 157.471 129.257)" fill="#EDCD33"/>
<circle cx="180.941" cy="113.988" r="5" transform="rotate(-33.0471 180.941 113.988)" fill="#EDCD33"/>
<circle cx="120.891" cy="175.721" r="5" transform="rotate(-33.0471 120.891 175.721)" fill="#EDCD33"/>
<circle cx="144.362" cy="160.452" r="5" transform="rotate(-33.0471 144.362 160.452)" fill="#EDCD33"/>
<circle cx="167.832" cy="145.183" r="5" transform="rotate(-33.0471 167.832 145.183)" fill="#EDCD33"/>
<circle cx="131.253" cy="191.648" r="5" transform="rotate(-33.0471 131.253 191.648)" fill="#EDCD33"/>
<circle cx="154.723" cy="176.378" r="5" transform="rotate(-33.0471 154.723 176.378)" fill="#EDCD33"/>
<circle cx="178.193" cy="161.109" r="5" transform="rotate(-33.0471 178.193 161.109)" fill="#EDCD33"/>
<circle cx="141.614" cy="207.574" r="5" transform="rotate(-33.0471 141.614 207.574)" fill="#EDCD33"/>
<circle cx="165.084" cy="192.305" r="5" transform="rotate(-33.0471 165.084 192.305)" fill="#EDCD33"/>
<circle cx="151.975" cy="223.5" r="5" transform="rotate(-33.0471 151.975 223.5)" fill="#EDCD33"/>
<circle cx="175.445" cy="208.231" r="5" transform="rotate(-33.0471 175.445 208.231)" fill="#EDCD33"/>
<circle cx="162.336" cy="239.426" r="5" transform="rotate(-33.0471 162.336 239.426)" fill="#EDCD33"/>
<circle cx="185.806" cy="224.157" r="5" transform="rotate(-33.0471 185.806 224.157)" fill="#EDCD33"/>
<circle cx="172.697" cy="255.353" r="5" transform="rotate(-33.0471 172.697 255.353)" fill="#EDCD33"/>
</svg>
